<?xml version="1.0" encoding="UTF-8" standalone="no"?>
<svg
   xmlns:dc="http://purl.org/dc/elements/1.1/"
   xmlns:cc="http://creativecommons.org/ns#"
   xmlns:rdf="http://www.w3.org/1999/02/22-rdf-syntax-ns#"
   xmlns:svg="http://www.w3.org/2000/svg"
   xmlns="http://www.w3.org/2000/svg"
   xmlns:sodipodi="http://sodipodi.sourceforge.net/DTD/sodipodi-0.dtd"
   xmlns:inkscape="http://www.inkscape.org/namespaces/inkscape"
   viewBox="0 0 1000.6667 666.66669"
   height="666.66669"
   width="1000.6667"
   xml:space="preserve"
   id="svg2"
   version="1.1"
   sodipodi:docname="formm.svg"
   inkscape:version="0.92.4 (5da689c313, 2019-01-14)"><sodipodi:namedview
     pagecolor="#ffffff"
     bordercolor="#666666"
     borderopacity="1"
     objecttolerance="10"
     gridtolerance="10"
     guidetolerance="10"
     inkscape:pageopacity="0"
     inkscape:pageshadow="2"
     inkscape:window-width="1920"
     inkscape:window-height="1017"
     id="namedview375"
     showgrid="false"
     inkscape:zoom="1"
     inkscape:cx="430.59824"
     inkscape:cy="247.99475"
     inkscape:window-x="-8"
     inkscape:window-y="-8"
     inkscape:window-maximized="1"
     inkscape:current-layer="svg2" /><metadata
     id="metadata8"><rdf:RDF><cc:Work
         rdf:about=""><dc:format>image/svg+xml</dc:format><dc:type
           rdf:resource="http://purl.org/dc/dcmitype/StillImage" /><dc:title></dc:title></cc:Work></rdf:RDF></metadata><defs
     id="defs6"><clipPath
       id="clipPath20"
       clipPathUnits="userSpaceOnUse"><path
         id="path18"
         d="M 5000,0 H 0 V 5000 H 5000 V 0 M 1097.78,1210.22 c 366.07,-77.17 859.45,-124.47 1402.22,-124.47 542.77,0 1036.15,47.3 1402.22,124.47 h 521.74 c 47.27,0 77.51,73.54 75.02,107.26 0.57,3.91 -0.56,8.08 -3.59,12.41 v 0 l -51.75,70.79 c 65.59,44.81 101.04,92.66 101.04,142.37 0,102.42 -150.55,196.98 -404.84,273.21 l -152.3,208.34 c -8.63,12.32 -44.47,22.46 -83.91,24.6 22.94,12.62 38.52,37.04 38.52,65.02 v 1645.34 c 0,85.3 -70.2,154.69 -156.49,154.69 H 1210.01 c -86.29,0 -156.5,-69.39 -156.5,-154.69 V 2114.22 c 0,-28.16 15.78,-52.71 38.97,-65.26 -37.88,-2.57 -71.68,-12.45 -80.02,-24.36 l -152.3,-208.34 c -254.289,-76.23 -404.836,-170.79 -404.836,-273.21 0,-49.71 35.449,-97.56 101.035,-142.37 l -51.75,-70.79 v 0 c -3.031,-4.33 -4.16,-8.5 -3.589,-12.41 -2.493,-33.72 27.753,-107.26 75.027,-107.26 h 521.733 m 1123.95,3327.76 v -86.68 h 561.47 v 86.68 h -561.47 m -389.01,136.54 v -86.93 h 1329.36 v 86.93 H 1832.72"
         inkscape:connector-curvature="0" /></clipPath><radialGradient
       id="radialGradient26"
       spreadMethod="pad"
       gradientTransform="matrix(2500,0,0,-2500,2500,2500)"
       gradientUnits="userSpaceOnUse"
       r="1"
       cy="0"
       cx="0"
       fy="0"
       fx="0"><stop
         id="stop22"
         offset="0"
         style="stop-opacity:1;stop-color:#3db997" /><stop
         id="stop24"
         offset="1"
         style="stop-opacity:1;stop-color:#348c95" /></radialGradient><clipPath
       id="clipPath36"
       clipPathUnits="userSpaceOnUse"><path
         id="path34"
         d="m 1832.72,4587.59 h 1329.36 v 86.9258 H 1832.72 Z"
         inkscape:connector-curvature="0" /></clipPath><radialGradient
       id="radialGradient42"
       spreadMethod="pad"
       gradientTransform="matrix(2500,0,0,-2500,2500,2500)"
       gradientUnits="userSpaceOnUse"
       r="1"
       cy="0"
       cx="0"
       fy="0"
       fx="0"><stop
         id="stop38"
         offset="0"
         style="stop-opacity:1;stop-color:#3db997" /><stop
         id="stop40"
         offset="1"
         style="stop-opacity:1;stop-color:#348c95" /></radialGradient><clipPath
       id="clipPath52"
       clipPathUnits="userSpaceOnUse"><path
         id="path50"
         d="m 1832.72,4587.59 h 1329.36 v 86.9258 H 1832.72 Z"
         inkscape:connector-curvature="0" /></clipPath><clipPath
       id="clipPath74"
       clipPathUnits="userSpaceOnUse"><path
         id="path72"
         d="m 2221.73,4451.3 h 561.469 v 86.6875 H 2221.73 Z"
         inkscape:connector-curvature="0" /></clipPath><radialGradient
       id="radialGradient80"
       spreadMethod="pad"
       gradientTransform="matrix(2500,0,0,-2500,2500,2500)"
       gradientUnits="userSpaceOnUse"
       r="1"
       cy="0"
       cx="0"
       fy="0"
       fx="0"><stop
         id="stop76"
         offset="0"
         style="stop-opacity:1;stop-color:#3db997" /><stop
         id="stop78"
         offset="1"
         style="stop-opacity:1;stop-color:#348c95" /></radialGradient><clipPath
       id="clipPath90"
       clipPathUnits="userSpaceOnUse"><path
         id="path88"
         d="m 2221.73,4451.3 h 561.469 v 86.6875 H 2221.73 Z"
         inkscape:connector-curvature="0" /></clipPath><clipPath
       id="clipPath96"
       clipPathUnits="userSpaceOnUse"><path
         style="clip-rule:evenodd"
         id="path94"
         d="m 2220,4540 v -55 h 17.5 v 2.5 h 20 v 2.5 h 20 v 2.5 h 22.5 v 47.5 h -80"
         inkscape:connector-curvature="0" /></clipPath><clipPath
       id="clipPath110"
       clipPathUnits="userSpaceOnUse"><path
         id="path108"
         d="m 2221.73,4451.3 h 561.469 v 86.6875 H 2221.73 Z"
         inkscape:connector-curvature="0" /></clipPath><clipPath
       id="clipPath116"
       clipPathUnits="userSpaceOnUse"><path
         style="clip-rule:evenodd"
         id="path114"
         d="m 2277.5,4492.5 v -2.5 h -20 v -2.5 h -20 V 4485 H 2220 v -35 h 80 v 42.5 h -22.5"
         inkscape:connector-curvature="0" /></clipPath><clipPath
       id="clipPath130"
       clipPathUnits="userSpaceOnUse"><path
         id="path128"
         d="m 2221.73,4451.3 h 561.469 v 86.6875 H 2221.73 Z"
         inkscape:connector-curvature="0" /></clipPath><clipPath
       id="clipPath136"
       clipPathUnits="userSpaceOnUse"><path
         style="clip-rule:evenodd"
         id="path134"
         d="m 2300,4540 v -47.5 h 2.5 v 2.5 h 27.5 v 2.5 h 30 v 2.5 h 30 v 40 h -90"
         inkscape:connector-curvature="0" /></clipPath><clipPath
       id="clipPath150"
       clipPathUnits="userSpaceOnUse"><path
         id="path148"
         d="m 2221.73,4451.3 h 561.469 v 86.6875 H 2221.73 Z"
         inkscape:connector-curvature="0" /></clipPath><clipPath
       id="clipPath156"
       clipPathUnits="userSpaceOnUse"><path
         style="clip-rule:evenodd"
         id="path154"
         d="m 2360,4500 v -2.5 h -30 v -2.5 h -27.5 v -2.5 H 2300 V 4450 h 90 v 50 h -30"
         inkscape:connector-curvature="0" /></clipPath><clipPath
       id="clipPath170"
       clipPathUnits="userSpaceOnUse"><path
         id="path168"
         d="m 2221.73,4451.3 h 561.469 v 86.6875 H 2221.73 Z"
         inkscape:connector-curvature="0" /></clipPath><clipPath
       id="clipPath176"
       clipPathUnits="userSpaceOnUse"><path
         style="clip-rule:evenodd"
         id="path174"
         d="m 2390,4540 v -40 h 12.5 v 2.5 h 77.5 v 37.5 h -90"
         inkscape:connector-curvature="0" /></clipPath><clipPath
       id="clipPath190"
       clipPathUnits="userSpaceOnUse"><path
         id="path188"
         d="m 2221.73,4451.3 h 561.469 v 86.6875 H 2221.73 Z"
         inkscape:connector-curvature="0" /></clipPath><clipPath
       id="clipPath196"
       clipPathUnits="userSpaceOnUse"><path
         style="clip-rule:evenodd"
         id="path194"
         d="M 2402.5,4502.5 V 4500 H 2390 v -50 h 90 v 52.5 h -77.5"
         inkscape:connector-curvature="0" /></clipPath><clipPath
       id="clipPath210"
       clipPathUnits="userSpaceOnUse"><path
         style="clip-rule:evenodd"
         id="path208"
         d="m 2480,4502 v 36 h 90 v -36 z"
         inkscape:connector-curvature="0" /></clipPath><clipPath
       id="clipPath224"
       clipPathUnits="userSpaceOnUse"><path
         style="clip-rule:evenodd"
         id="path222"
         d="m 2480,4451 v 52 h 90 v -52 z"
         inkscape:connector-curvature="0" /></clipPath><clipPath
       id="clipPath238"
       clipPathUnits="userSpaceOnUse"><path
         id="path236"
         d="m 2221.73,4451.3 h 561.469 v 86.6875 H 2221.73 Z"
         inkscape:connector-curvature="0" /></clipPath><clipPath
       id="clipPath244"
       clipPathUnits="userSpaceOnUse"><path
         style="clip-rule:evenodd"
         id="path242"
         d="m 2570,4540 v -37.5 h 27.5 v -2.5 h 42.5 v 40 h -70"
         inkscape:connector-curvature="0" /></clipPath><clipPath
       id="clipPath258"
       clipPathUnits="userSpaceOnUse"><path
         id="path256"
         d="m 2221.73,4451.3 h 561.469 v 86.6875 H 2221.73 Z"
         inkscape:connector-curvature="0" /></clipPath><clipPath
       id="clipPath264"
       clipPathUnits="userSpaceOnUse"><path
         style="clip-rule:evenodd"
         id="path262"
         d="M 2570,4502.5 V 4450 h 70 v 50 h -42.5 v 2.5 H 2570"
         inkscape:connector-curvature="0" /></clipPath><clipPath
       id="clipPath278"
       clipPathUnits="userSpaceOnUse"><path
         id="path276"
         d="m 2221.73,4451.3 h 561.469 v 86.6875 H 2221.73 Z"
         inkscape:connector-curvature="0" /></clipPath><clipPath
       id="clipPath284"
       clipPathUnits="userSpaceOnUse"><path
         style="clip-rule:evenodd"
         id="path282"
         d="m 2640,4540 v -42.5 h 32.5 v -2.5 h 27.5 v -2.5 h 10 v 47.5 h -70"
         inkscape:connector-curvature="0" /></clipPath><clipPath
       id="clipPath298"
       clipPathUnits="userSpaceOnUse"><path
         id="path296"
         d="m 2221.73,4451.3 h 561.469 v 86.6875 H 2221.73 Z"
         inkscape:connector-curvature="0" /></clipPath><clipPath
       id="clipPath304"
       clipPathUnits="userSpaceOnUse"><path
         style="clip-rule:evenodd"
         id="path302"
         d="M 2640,4497.5 V 4450 h 70 v 42.5 h -10 v 2.5 h -27.5 v 2.5 H 2640"
         inkscape:connector-curvature="0" /></clipPath><clipPath
       id="clipPath318"
       clipPathUnits="userSpaceOnUse"><path
         id="path316"
         d="m 2221.73,4451.3 h 561.469 v 86.6875 H 2221.73 Z"
         inkscape:connector-curvature="0" /></clipPath><clipPath
       id="clipPath324"
       clipPathUnits="userSpaceOnUse"><path
         style="clip-rule:evenodd"
         id="path322"
         d="m 2710,4540 v -47.5 h 12.5 v -2.5 h 22.5 v -2.5 h 17.5 v -2.5 h 20 v -2.5 h 7.5 v 57.5 h -80"
         inkscape:connector-curvature="0" /></clipPath><clipPath
       id="clipPath338"
       clipPathUnits="userSpaceOnUse"><path
         id="path336"
         d="m 2221.73,4451.3 h 561.469 v 86.6875 H 2221.73 Z"
         inkscape:connector-curvature="0" /></clipPath><clipPath
       id="clipPath344"
       clipPathUnits="userSpaceOnUse"><path
         style="clip-rule:evenodd"
         id="path342"
         d="M 2710,4492.5 V 4450 h 80 v 32.5 h -7.5 v 2.5 h -20 v 2.5 H 2745 v 2.5 h -22.5 v 2.5 H 2710"
         inkscape:connector-curvature="0" /></clipPath><clipPath
       id="clipPath618"
       clipPathUnits="userSpaceOnUse"><path
         id="path616"
         d="m 2533.11,3116.22 h 186.832 v 26.1133 H 2533.11 Z"
         inkscape:connector-curvature="0" /></clipPath><clipPath
       id="clipPath636"
       clipPathUnits="userSpaceOnUse"><path
         id="path634"
         d="m 1373.45,2891.46 h 91.0703 v 26.8281 H 1373.45 Z"
         inkscape:connector-curvature="0" /></clipPath><clipPath
       id="clipPath654"
       clipPathUnits="userSpaceOnUse"><path
         id="path652"
         d="m 1370.73,2641.85 h 138.07 v 26.8281 h -138.07 z"
         inkscape:connector-curvature="0" /></clipPath><clipPath
       id="clipPath672"
       clipPathUnits="userSpaceOnUse"><path
         id="path670"
         d="m 1373.13,3118.51 h 181.23 v 26.8281 h -181.23 z"
         inkscape:connector-curvature="0" /></clipPath><clipPath
       id="clipPath690"
       clipPathUnits="userSpaceOnUse"><path
         id="path688"
         d="m 1945.35,3118.36 h 179.84 v 26.1094 h -179.84 z"
         inkscape:connector-curvature="0" /></clipPath><clipPath
       id="clipPath690-9"
       clipPathUnits="userSpaceOnUse"><path
         inkscape:connector-curvature="0"
         id="path688-3"
         d="m 1945.35,3118.36 h 179.84 v 26.1094 h -179.84 z" /></clipPath><clipPath
       id="clipPath672-0"
       clipPathUnits="userSpaceOnUse"><path
         inkscape:connector-curvature="0"
         id="path670-0"
         d="m 1373.13,3118.51 h 181.23 v 26.8281 h -181.23 z" /></clipPath><clipPath
       id="clipPath654-4"
       clipPathUnits="userSpaceOnUse"><path
         inkscape:connector-curvature="0"
         id="path652-9"
         d="m 1370.73,2641.85 h 138.07 v 26.8281 h -138.07 z" /></clipPath><clipPath
       id="clipPath636-2"
       clipPathUnits="userSpaceOnUse"><path
         inkscape:connector-curvature="0"
         id="path634-7"
         d="m 1373.45,2891.46 h 91.0703 v 26.8281 H 1373.45 Z" /></clipPath><clipPath
       id="clipPath618-5"
       clipPathUnits="userSpaceOnUse"><path
         inkscape:connector-curvature="0"
         id="path616-4"
         d="m 2533.11,3116.22 h 186.832 v 26.1133 H 2533.11 Z" /></clipPath></defs><path
     id="path534"
     style="fill:#6c63ff;fill-opacity:1;fill-rule:nonzero;stroke:none;stroke-width:0.36381984"
     d="M 29.53,650.36996 H 976.88335 V 31.539157 H 29.53 Z"
     inkscape:connector-curvature="0" /><path
     id="path536"
     style="fill:#6c63ff;fill-opacity:0;fill-rule:nonzero;stroke:none;stroke-width:0.36381984"
     d="M 31.291573,648.56216 H 975.11808 V 33.343282 H 31.291573 Z"
     inkscape:connector-curvature="0" /><path
     id="path538"
     style="fill:#2e738e;fill-opacity:1;fill-rule:nonzero;stroke:none;stroke-width:0.36381984"
     d="M 599.815,584.22181 H 403.11107 V 540.9527 H 599.815 v 43.26911"
     inkscape:connector-curvature="0" /><g
     transform="matrix(3.5950639,0,0,-3.6818511,-394.78102,1417.7782)"
     id="g540"><text
       id="text544"
       style="font-variant:normal;font-weight:600;font-size:4.12094021px;font-family:Raleway;-inkscape-font-specification:Raleway-SemiBold;writing-mode:lr-tb;fill:#ffffff;fill-opacity:1;fill-rule:nonzero;stroke:none"
       transform="matrix(1,0,0,-1,230.61,230.618)"><tspan
         id="tspan542"
         y="0"
         x="0 2.818723 5.5433235 8.027689 10.520846 13.059907 15.544272 16.434898 19.108721 21.898758 24.688793 27.787741 30.887346 34.047497">CREATE ACCOUNT</tspan></text>
</g><path
     id="path546"
     style="fill:#ffffff;fill-opacity:1;fill-rule:nonzero;stroke:none;stroke-width:0.36381984"
     d="m 515.94934,320.33987 h 389.21247 v -43.2691 H 515.94934 Z"
     inkscape:connector-curvature="0" /><g
     transform="matrix(3.5950639,0,0,-3.6818511,-394.78102,1417.7782)"
     id="g548"><text
       id="text552"
       style="font-variant:normal;font-weight:500;font-size:3.62654996px;font-family:Raleway;-inkscape-font-specification:Raleway-Medium;writing-mode:lr-tb;fill:#2e738e;fill-opacity:1;fill-rule:nonzero;stroke:none"
       transform="matrix(1,0,0,-1,253.039,311.658)"><tspan
         id="tspan550"
         y="0"
         x="0 2.6914144 4.4829302 6.6262212 7.8586502 8.7761669 11.550593 13.559702 16.910635"
         style="fill:#ffffff">User Name</tspan></text>
</g><path
     id="path554"
     style="fill:#ffffff;fill-opacity:1;fill-rule:nonzero;stroke:none;stroke-width:0.36381984"
     d="M 98.914727,402.42675 H 488.13075 V 359.15764 H 98.914727 Z"
     inkscape:connector-curvature="0" /><g
     transform="matrix(3.5950639,0,0,-3.6818511,-394.78102,1417.7782)"
     id="g556"><text
       id="text560"
       style="font-variant:normal;font-weight:500;font-size:3.62654996px;font-family:Raleway;-inkscape-font-specification:Raleway-Medium;writing-mode:lr-tb;fill:#2e738e;fill-opacity:1;fill-rule:nonzero;stroke:none"
       transform="matrix(1,0,0,-1,137.037,289.182)"><tspan
         id="tspan558"
         y="0"
         x="0 2.1757767 5.5273438 7.5364523 8.3705587"
         style="fill:#ffffff">Email</tspan></text>
</g><g
     transform="matrix(3.5950639,0,0,-3.6818511,-394.78102,1417.7782)"
     id="g564"
     style="fill-opacity:1;fill:none"><text
       id="text568"
       style="font-variant:normal;font-weight:500;font-size:3.62654996px;font-family:Raleway;-inkscape-font-specification:Raleway-Medium;writing-mode:lr-tb;fill-opacity:1;fill-rule:nonzero;stroke:none;fill:none"
       transform="matrix(1,0,0,-1,253.039,289.191)"><tspan
         id="tspan566"
         y="0"
         x="0 2.4733071 3.3074136 4.5839591"
         style="fill-opacity:1;fill:none">City</tspan></text>
</g><path
     id="path570"
     style="fill:#ffffff;fill-opacity:1;fill-rule:nonzero;stroke:none;stroke-width:0.36381984"
     d="M 515.91473,403.02605 H 905.13075 V 359.75584 H 515.91473 Z"
     inkscape:connector-curvature="0" /><g
     transform="matrix(3.5950639,0,0,-3.6818511,22.218978,1327.7782)"
     id="g572"><text
       id="text576"
       style="font-variant:normal;font-weight:500;font-size:3.62654996px;font-family:Raleway;-inkscape-font-specification:Raleway-Medium;writing-mode:lr-tb;fill:#2e738e;fill-opacity:1;fill-rule:nonzero;stroke:none"
       transform="matrix(1,0,0,-1,137.037,264.221)"><tspan
         id="tspan574"
         y="0"
         x="0 2.4003892 4.681489 6.9625893 8.2350445 10.378336 12.169851"
         style="fill:#ffffff">Address</tspan></text>
</g><g
     transform="matrix(3.5950639,0,0,-3.6818511,-394.78102,1417.7782)"
     id="g580"
     style="fill-opacity:1;fill:none"><text
       id="text584"
       style="font-variant:normal;font-weight:500;font-size:3.62654996px;font-family:Raleway;-inkscape-font-specification:Raleway-Medium;writing-mode:lr-tb;fill-opacity:1;fill-rule:nonzero;stroke:none;fill:none"
       transform="matrix(1,0,0,-1,253.039,264.256)"><tspan
         id="tspan582"
         y="0"
         x="0 2.2593408 4.3990049 6.5713086 8.7109728 10.854264 11.771244 14.564225 16.742928 20.094494 22.353273 24.496565"
         style="fill-opacity:1;fill:none">Phone Number</tspan></text>
</g><path
     id="path586"
     style="fill:#ffffff;fill-opacity:1;fill-rule:nonzero;stroke:none;stroke-width:0.36381984"
     d="M 98.803289,320.28464 H 282.23854 v -43.2691 H 98.803289 Z"
     inkscape:connector-curvature="0" /><g
     transform="matrix(3.5950639,0,0,-3.6818511,-394.78102,1417.7782)"
     id="g588"><text
       id="text592"
       style="font-variant:normal;font-weight:500;font-size:3.62654996px;font-family:Raleway;-inkscape-font-specification:Raleway-Medium;writing-mode:lr-tb;fill:#2e738e;fill-opacity:1;fill-rule:nonzero;stroke:none"
       transform="matrix(1,0,0,-1,137.006,311.888)"><tspan
         id="tspan590"
         y="0"
         x="0 2.1142786 2.9483852 4.264823 6.0570345 7.33358 8.2505722 11.024986 13.034095 16.385662"
         style="fill:#ffffff">First Name</tspan></text>
</g><path
     id="path594"
     style="fill:#ffffff;fill-opacity:1;fill-rule:nonzero;stroke:none;stroke-width:0.36381984"
     d="m 304.69619,320.33987 h 183.43383 v -43.2691 H 304.69619 Z"
     inkscape:connector-curvature="0" /><g
     transform="matrix(3.5950639,0,0,-3.6818511,-394.78102,1417.7782)"
     id="g596"><text
       id="text600"
       style="font-variant:normal;font-weight:500;font-size:3.62654996px;font-family:Raleway;-inkscape-font-specification:Raleway-Medium;writing-mode:lr-tb;fill:#2e738e;fill-opacity:1;fill-rule:nonzero;stroke:none"
       transform="matrix(1,0,0,-1,194.228,311.873)"><tspan
         id="tspan598"
         y="0"
         x="0 2.1179051 4.1270137 5.9180293 7.1953683 8.11236 10.886786 12.895895 16.247461"
         style="fill:#ffffff">Last Name</tspan></text>
</g><path
     id="path602"
     style="fill:#2e738e;fill-opacity:1;fill-rule:nonzero;stroke:none;stroke-width:0.36381984"
     d="m 566.16878,146.45342 c 0,33.42385 -26.45608,60.51489 -59.09207,60.51489 -32.63599,0 -59.09207,-27.09104 -59.09207,-60.51489 0,-33.42384 26.45608,-60.518586 59.09207,-60.518586 32.63599,0 59.09207,27.094746 59.09207,60.518586"
     inkscape:connector-curvature="0" /><path
     id="path604"
     style="fill:#ffffff;fill-opacity:1;fill-rule:nonzero;stroke:none;stroke-width:0.36381984"
     d="m 523.66792,130.31954 c 0,9.1273 -7.22608,16.52782 -16.13823,16.52782 -8.91574,0 -16.14182,-7.40052 -16.14182,-16.52782 0,-9.13097 7.22608,-16.53149 16.14182,-16.53149 8.91215,0 16.13823,7.40052 16.13823,16.53149"
     inkscape:connector-curvature="0" /><path
     id="path606"
     style="fill:#ffffff;fill-opacity:1;fill-rule:nonzero;stroke:none;stroke-width:0.36381984"
     d="m 532.89287,170.12404 c 0,12.48516 -50.72634,12.48516 -50.72634,0 0,-12.48148 11.3532,-22.59921 25.36316,-22.59921 14.00638,0 25.36318,10.11773 25.36318,22.59921"
     inkscape:connector-curvature="0" /><path
     id="path610"
     style="fill:#ffffff;fill-opacity:1;fill-rule:nonzero;stroke:none;stroke-width:0.36381984"
     d="m 515.94934,320.31777 v -43.247 h 62.74105 l -62.74105,43.247"
     inkscape:connector-curvature="0" /><g
     id="g612"
     transform="matrix(0.35950639,0,0,-0.36818511,-394.78102,1417.7782)"
     style="fill-opacity:1;fill:none"><g
       clip-path="url(#clipPath618-5)"
       id="g614"
       style="fill-opacity:1;fill:none"><path
         id="path620"
         style="fill-opacity:1;fill-rule:nonzero;stroke:none;fill:none"
         d="m 2533.11,3116.22 h 186.832 v 26.1133 H 2533.11 Z"
         inkscape:connector-curvature="0" /><g
         transform="scale(10)"
         id="g622"
         style="fill-opacity:1;fill:none"><text
           id="text626"
           style="font-variant:normal;font-weight:500;font-size:3.62654996px;font-family:Raleway;-inkscape-font-specification:Raleway-Medium;writing-mode:lr-tb;fill-opacity:1;fill-rule:nonzero;stroke:none;fill:none"
           transform="matrix(1,0,0,-1,253.039,311.658)"><tspan
             id="tspan624"
             y="0"
             x="0 2.6914144 4.4829302 6.6262212 7.8586502 8.7761669 11.550593 13.559702 16.910635"
             style="fill-opacity:1;fill:none">User Name</tspan></text>
</g></g></g><path
     id="path628"
     style="fill:#ffffff;fill-opacity:1;fill-rule:nonzero;stroke:none;stroke-width:0.36381984"
     d="M 396.8269,402.42675 H 98.914727 V 359.15764 H 459.60029 l -62.77339,43.26911"
     inkscape:connector-curvature="0" /><g
     id="g630"
     transform="matrix(0.35950639,0,0,-0.36818511,-394.78102,1417.7782)"
     style="fill-opacity:1;fill:none"><g
       clip-path="url(#clipPath636-2)"
       id="g632"
       style="fill-opacity:1;fill:none"><path
         id="path638"
         style="fill-opacity:1;fill-rule:nonzero;stroke:none;fill:none"
         d="m 1373.45,2891.46 h 91.0703 v 26.8281 H 1373.45 Z"
         inkscape:connector-curvature="0" /><g
         transform="scale(10)"
         id="g640"
         style="fill-opacity:1;fill:none"><text
           id="text644"
           style="font-variant:normal;font-weight:500;font-size:3.62654996px;font-family:Raleway;-inkscape-font-specification:Raleway-Medium;writing-mode:lr-tb;fill-opacity:1;fill-rule:nonzero;stroke:none;fill:none"
           transform="matrix(1,0,0,-1,137.037,289.182)"><tspan
             id="tspan642"
             y="0"
             x="0 2.1757767 5.5273438 7.5364523 8.3705587"
             style="fill-opacity:1;fill:none">Email</tspan></text>
</g></g></g><path
     id="path646"
     style="fill:#ffffff;fill-opacity:1;fill-rule:nonzero;stroke:none;stroke-width:0.36381984"
     d="M 682.38417,403.02605 H 515.91473 v -43.2691 h 229.24284 l -62.7734,43.2691"
     inkscape:connector-curvature="0" /><g
     id="g648"
     transform="matrix(0.35950639,0,0,-0.36818511,-394.78102,1417.7782)"
     style="fill-opacity:1;fill:none"><g
       clip-path="url(#clipPath654-4)"
       id="g650"
       style="fill-opacity:1;fill:none"><path
         id="path656"
         style="fill-opacity:1;fill-rule:nonzero;stroke:none;fill:none"
         d="m 1370.73,2641.85 h 138.07 v 26.8281 h -138.07 z"
         inkscape:connector-curvature="0" /><g
         transform="scale(10)"
         id="g658"
         style="fill-opacity:1;fill:none"><text
           id="text662"
           style="font-variant:normal;font-weight:500;font-size:3.62654996px;font-family:Raleway;-inkscape-font-specification:Raleway-Medium;writing-mode:lr-tb;fill-opacity:1;fill-rule:nonzero;stroke:none;fill:none"
           transform="matrix(1,0,0,-1,137.037,264.221)"><tspan
             id="tspan660"
             y="0"
             x="0 2.4003892 4.681489 6.9625893 8.2350445 10.378336 12.169851"
             style="fill-opacity:1;fill:none">Address</tspan></text>
</g></g></g><path
     id="path664"
     style="fill:#ffffff;fill-opacity:1;fill-rule:nonzero;stroke:none;stroke-width:0.36381984"
     d="M 98.803289,320.28464 H 282.23854 v -43.2691 H 98.803289 Z"
     inkscape:connector-curvature="0" /><g
     id="g666"
     transform="matrix(0.35950639,0,0,-0.36818511,-394.78102,1417.7782)"
     style="fill-opacity:1;fill:none"><g
       clip-path="url(#clipPath672-0)"
       id="g668"
       style="fill-opacity:1;fill:none"><path
         id="path674"
         style="fill-opacity:1;fill-rule:nonzero;stroke:none;fill:none"
         d="m 1373.13,3118.51 h 181.23 v 26.8281 h -181.23 z"
         inkscape:connector-curvature="0" /><g
         transform="scale(10)"
         id="g676"
         style="fill-opacity:1;fill:none"><text
           id="text680"
           style="font-variant:normal;font-weight:500;font-size:3.62654996px;font-family:Raleway;-inkscape-font-specification:Raleway-Medium;writing-mode:lr-tb;fill-opacity:1;fill-rule:nonzero;stroke:none;fill:none"
           transform="matrix(1,0,0,-1,137.006,311.888)"><tspan
             id="tspan678"
             y="0"
             x="0 2.1142786 2.9483852 4.264823 6.0570345 7.33358 8.2505722 11.024986 13.034095 16.385662"
             style="fill-opacity:1;fill:none">First Name</tspan></text>
</g></g></g><path
     id="path682"
     style="fill:#ffffff;fill-opacity:1;fill-rule:nonzero;stroke:none;stroke-width:0.36381984"
     d="m 304.69619,320.33987 h 183.43383 v -43.2691 H 304.69619 Z"
     inkscape:connector-curvature="0" /><g
     id="g684"
     transform="matrix(0.35950639,0,0,-0.36818511,-394.78102,1417.7782)"
     style="fill-opacity:1;fill:none"><g
       clip-path="url(#clipPath690-9)"
       id="g686"
       style="fill-opacity:1;fill:none"><path
         id="path692"
         style="fill-opacity:1;fill-rule:nonzero;stroke:none;fill:none"
         d="m 1945.35,3118.36 h 179.84 v 26.1094 h -179.84 z"
         inkscape:connector-curvature="0" /><g
         transform="scale(10)"
         id="g694"
         style="fill-opacity:1;fill:none"><text
           id="text698"
           style="font-variant:normal;font-weight:500;font-size:3.62654996px;font-family:Raleway;-inkscape-font-specification:Raleway-Medium;writing-mode:lr-tb;fill-opacity:1;fill-rule:nonzero;stroke:none;fill:none"
           transform="matrix(1,0,0,-1,194.228,311.873)"><tspan
             id="tspan696"
             y="0"
             x="0 2.1179051 4.1270137 5.9180293 7.1953683 8.11236 10.886786 12.895895 16.247461"
             style="fill-opacity:1;fill:none">Last Name</tspan></text>
</g></g></g><path
     id="path700"
     style="fill:#3d899e;fill-opacity:1;fill-rule:nonzero;stroke:none;stroke-width:0.36381984"
     d="m 507.07671,206.96831 c -32.63599,0 -59.09207,-27.09104 -59.09207,-60.51489 0,-33.42384 26.45608,-60.518586 59.09207,-60.518586 32.63599,0 59.09207,27.094746 59.09207,60.518586 0,33.42385 -26.45608,60.51489 -59.09207,60.51489 m 0.45298,-59.44348 c -14.00996,0 -25.36316,10.11773 -25.36316,22.59921 0,6.24074 12.67977,9.36294 25.36316,9.36294 12.6798,0 25.36318,-3.1222 25.36318,-9.36294 0,-12.48148 -11.3568,-22.59921 -25.36318,-22.59921 m 0,-33.73678 c -8.91574,0 -16.14182,7.40052 -16.14182,16.53149 0,9.1273 7.22608,16.52782 16.14182,16.52782 8.91215,0 16.13823,-7.40052 16.13823,-16.52782 0,-9.13097 -7.22608,-16.53149 -16.13823,-16.53149"
     inkscape:connector-curvature="0" /><path
     id="path702"
     style="fill:#ffffff;fill-opacity:1;fill-rule:nonzero;stroke:none;stroke-width:0.36381984"
     d="m 507.52969,146.84736 c -8.91574,0 -16.14182,-7.40052 -16.14182,-16.52782 0,-9.13097 7.22608,-16.53149 16.14182,-16.53149 8.91215,0 16.13823,7.40052 16.13823,16.53149 0,9.1273 -7.22608,16.52782 -16.13823,16.52782"
     inkscape:connector-curvature="0" /><path
     id="path704"
     style="fill:#ffffff;fill-opacity:1;fill-rule:nonzero;stroke:none;stroke-width:0.36381984"
     d="m 507.52969,179.48698 c -12.68339,0 -25.36316,-3.1222 -25.36316,-9.36294 0,-12.48148 11.3532,-22.59921 25.36316,-22.59921 14.00638,0 25.36318,10.11773 25.36318,22.59921 0,6.24074 -12.68338,9.36294 -25.36318,9.36294"
     inkscape:connector-curvature="0" /></svg>