<?xml version="1.0" encoding="UTF-8" standalone="no"?>
<svg
   xmlns:dc="http://purl.org/dc/elements/1.1/"
   xmlns:cc="http://creativecommons.org/ns#"
   xmlns:rdf="http://www.w3.org/1999/02/22-rdf-syntax-ns#"
   xmlns:svg="http://www.w3.org/2000/svg"
   xmlns="http://www.w3.org/2000/svg"
   xmlns:sodipodi="http://sodipodi.sourceforge.net/DTD/sodipodi-0.dtd"
   xmlns:inkscape="http://www.inkscape.org/namespaces/inkscape"
   viewBox="0 0 1046.6667 1029.3333"
   height="1029.3333"
   width="1046.6667"
   xml:space="preserve"
   id="svg2"
   version="1.1"
   sodipodi:docname="script.svg"
   inkscape:version="0.92.4 (5da689c313, 2019-01-14)"><sodipodi:namedview
     pagecolor="#ffffff"
     bordercolor="#666666"
     borderopacity="1"
     objecttolerance="10"
     gridtolerance="10"
     guidetolerance="10"
     inkscape:pageopacity="0"
     inkscape:pageshadow="2"
     inkscape:window-width="1920"
     inkscape:window-height="1017"
     id="namedview54"
     showgrid="false"
     inkscape:zoom="0.36724136"
     inkscape:cx="426.05636"
     inkscape:cy="248.76742"
     inkscape:window-x="-8"
     inkscape:window-y="-8"
     inkscape:window-maximized="1"
     inkscape:current-layer="svg2" /><metadata
     id="metadata8"><rdf:RDF><cc:Work
         rdf:about=""><dc:format>image/svg+xml</dc:format><dc:type
           rdf:resource="http://purl.org/dc/dcmitype/StillImage" /><dc:title></dc:title></cc:Work></rdf:RDF></metadata><defs
     id="defs6"><clipPath
       id="clipPath22"
       clipPathUnits="userSpaceOnUse"><path
         id="path20"
         d="m 3917.34,964.992 c -1815.48,0 -3287.207,1471.728 -3287.207,3287.198 0,1815.47 1471.727,3287.2 3287.207,3287.2 1159.38,0 2178.64,-600.3 2763.87,-1506.94 h -2322.3 c -184.76,0 -334.54,-149.78 -334.54,-334.55 V 2233.03 h -176.43 l -2.4,-2.88 c -137.93,-165.51 -137.93,-405.92 0,-571.43 l 2.4,-2.89 c 0,0 106.49,0 280.48,0 H 5933.68 C 5376.93,1222.84 4677.25,964.992 3917.34,964.992"
         inkscape:connector-curvature="0" /></clipPath><radialGradient
       id="radialGradient28"
       spreadMethod="pad"
       gradientTransform="matrix(3287.2,0,0,-3287.2,3917.34,4252.19)"
       gradientUnits="userSpaceOnUse"
       r="1"
       cy="0"
       cx="0"
       fy="0"
       fx="0"><stop
         id="stop24"
         offset="0"
         style="stop-opacity:1;stop-color:#abc3cd" /><stop
         id="stop26"
         offset="1"
         style="stop-opacity:1;stop-color:#9ebac6" /></radialGradient><clipPath
       id="clipPath40"
       clipPathUnits="userSpaceOnUse"><path
         id="path38"
         d="M 5933.68,1655.83 H 4128.42 c -173.99,0 -280.48,0 -280.48,0 l -2.4,2.89 c -137.93,165.51 -137.93,405.92 0,571.43 l 2.4,2.88 h 176.43 V 1738.6 h 2011.47 c -33.46,-28.23 -67.58,-55.87 -102.16,-82.77"
         inkscape:connector-curvature="0" /></clipPath><radialGradient
       id="radialGradient46"
       spreadMethod="pad"
       gradientTransform="matrix(3287.2,0,0,-3287.2,3917.34,4252.19)"
       gradientUnits="userSpaceOnUse"
       r="1"
       cy="0"
       cx="0"
       fy="0"
       fx="0"><stop
         id="stop42"
         offset="0"
         style="stop-opacity:1;stop-color:#8ea2aa" /><stop
         id="stop44"
         offset="1"
         style="stop-opacity:1;stop-color:#839ba5" /></radialGradient></defs><path
     id="path52"
     style="fill:#dcdcdc;fill-opacity:1;fill-rule:nonzero;stroke:none;stroke-width:0.24150077"
     d="m 204.74437,163.72901 h 802.82573 l 0.6089,-0.66706 c 34.8492,-38.2027 34.8492,-93.693691 0,-131.894071 l -0.6089,-0.66708 H 951.42253 204.74437 l 3.9721,3.90314 c 37.24975,36.62161 35.80444,93.682151 -3.26209,128.690321 l -0.71001,0.63475"
     inkscape:connector-curvature="0" /><path
     id="path54"
     style="fill:#c8c8c8;fill-opacity:1;fill-rule:nonzero;stroke:none;stroke-width:0.24150077"
     d="M 847.69083,1023.3925 H 114.67228 V 109.51446 c 0,-42.648261 37.8461,-77.220201 84.53087,-77.220201 h 717.13268 c 0,0 74.4262,-4.03701 72.9228,0 -52.216,0.93251 -49.5401,133.228211 -49.5401,133.228211 v 773.8038 c 0,46.4291 -41.2016,84.06623 -92.0277,84.06623"
     inkscape:connector-curvature="0" /><path
     id="path56"
     style="fill:#dcdcdc;fill-opacity:1;fill-rule:nonzero;stroke:none;stroke-width:0.24150077"
     d="m 846.62443,1023.3925 c -32.694,0 -802.825749,0 -802.825749,0 l -0.60642,-0.6671 c -34.8493504,-38.20263 -34.8493504,-93.69363 0,-131.89631 l 0.60642,-0.66476 H 846.62443 l -3.9695,3.90314 c -37.2524,36.6216 -43.5793,99.1018 3.9695,129.32503 0,0 32.6966,0 0,0"
     inkscape:connector-curvature="0" /><path
     id="path62"
     style="fill:#e6e6e6;fill-opacity:1;fill-rule:nonzero;stroke:none;stroke-width:0.24150077"
     d="m 861.15593,262.02375 h -637.5441 v -15.5733 h 637.5441 v 15.5733"
     inkscape:connector-curvature="0" /><path
     id="path66"
     style="fill:#e6e6e6;fill-opacity:1;fill-rule:nonzero;stroke:none;stroke-width:0.24150077"
     d="m 861.15593,414.93151 h -637.5441 v -15.5733 h 637.5441 v 15.5733"
     inkscape:connector-curvature="0" /><path
     id="path70"
     style="fill:#e6e6e6;fill-opacity:1;fill-rule:nonzero;stroke:none;stroke-width:0.24150077"
     d="m 861.15593,567.83927 h -637.5441 v -15.5733 h 637.5441 v 15.5733"
     inkscape:connector-curvature="0" /><path
     id="path72"
     style="fill:#e6e6e6;fill-opacity:1;fill-rule:nonzero;stroke:none;stroke-width:0.24150077"
     d="m 861.15593,720.74703 h -637.5441 v -15.57562 h 637.5441 v 15.57562"
     inkscape:connector-curvature="0" /><path
     id="path100"
     style="fill:#526167;fill-opacity:1;fill-rule:nonzero;stroke:none;stroke-width:0.24150077"
     d="m 1152.0892,420.0225 v 0 l 29.533,-45.00491 v 0 l -29.533,45.00491"
     inkscape:connector-curvature="0" /><path
     id="path104"
     style="fill:#0c2630;fill-opacity:1;fill-rule:nonzero;stroke:none;stroke-width:0.24150077"
     d="m 1158.4112,362.30875 -30.1976,-16.5358 v 0 l 30.1976,16.5358"
     inkscape:connector-curvature="0" /><text
     xml:space="preserve"
     style="font-style:normal;font-variant:normal;font-weight:normal;font-stretch:normal;font-size:96px;line-height:1.25;font-family:'Tw Cen MT';-inkscape-font-specification:'Tw Cen MT';letter-spacing:0px;word-spacing:0px;fill:#6c63ff;fill-opacity:1;stroke:none"
     x="242.3474"
     y="220.82388"
     id="text4803"><tspan
       sodipodi:role="line"
       x="242.3474"
       y="220.82388"
       id="tspan4801"><tspan
         x="242.3474"
         y="220.82388"
         style="font-style:normal;font-variant:normal;font-weight:normal;font-stretch:normal;font-size:96px;font-family:'Tw Cen MT';-inkscape-font-specification:'Tw Cen MT';fill:#6c63ff;fill-opacity:1"
         id="tspan4799">Steal credit</tspan></tspan></text>
<text
     xml:space="preserve"
     style="font-style:normal;font-variant:normal;font-weight:normal;font-stretch:normal;font-size:96px;line-height:1.25;font-family:'Tw Cen MT';-inkscape-font-specification:'Tw Cen MT';letter-spacing:0px;word-spacing:0px;fill:#6c63ff;fill-opacity:1;stroke:none"
     x="242.42979"
     y="367.76251"
     id="text4797"><tspan
       sodipodi:role="line"
       x="242.42979"
       y="367.76251"
       id="tspan4795"><tspan
         x="242.42979"
         y="367.76251"
         style="font-style:normal;font-variant:normal;font-weight:normal;font-stretch:normal;font-size:96px;font-family:'Tw Cen MT';-inkscape-font-specification:'Tw Cen MT';fill:#6c63ff;fill-opacity:1"
         id="tspan4793">card data</tspan></tspan></text>
<text
     xml:space="preserve"
     style="font-style:normal;font-variant:normal;font-weight:normal;font-stretch:normal;font-size:96px;line-height:1.25;font-family:'Tw Cen MT';-inkscape-font-specification:'Tw Cen MT';letter-spacing:0px;word-spacing:0px;fill:#6c63ff;fill-opacity:1;stroke:none"
     x="242.27869"
     y="522.97375"
     id="text4785"><tspan
       sodipodi:role="line"
       x="242.27869"
       y="522.97375"
       id="tspan4783"><tspan
         x="242.27869"
         y="522.97375"
         style="font-style:normal;font-variant:normal;font-weight:normal;font-stretch:normal;font-size:96px;font-family:'Tw Cen MT';-inkscape-font-specification:'Tw Cen MT';fill:#6c63ff;fill-opacity:1"
         id="tspan4781">from local</tspan></tspan></text>
<text
     xml:space="preserve"
     style="font-style:normal;font-variant:normal;font-weight:normal;font-stretch:normal;font-size:96px;line-height:1.25;font-family:'Tw Cen MT';-inkscape-font-specification:'Tw Cen MT';letter-spacing:0px;word-spacing:0px;fill:#6c63ff;fill-opacity:1;stroke:none"
     x="239.55569"
     y="680.90808"
     id="text4791"><tspan
       sodipodi:role="line"
       x="239.55569"
       y="680.90808"
       id="tspan4789"><tspan
         x="239.55569"
         y="680.90808"
         style="font-style:normal;font-variant:normal;font-weight:normal;font-stretch:normal;font-size:96px;font-family:'Tw Cen MT';-inkscape-font-specification:'Tw Cen MT';fill:#6c63ff;fill-opacity:1"
         id="tspan4787">storage</tspan></tspan></text>
</svg>